<svg width="232" height="62" viewBox="0 0 232 62" fill="none" xmlns="http://www.w3.org/2000/svg">
<path d="M61.9386 24.2317L58.6527 22.3307C58.7069 18.4836 57.2583 14.7672 54.6151 11.9715C51.8228 9.02252 48.0337 7.39862 43.945 7.39862C41.1026 7.40015 38.3213 8.22405 35.9368 9.77095C33.5522 11.3179 31.6661 13.5217 30.506 16.1166L29.109 19.263L18.1445 8.29848C17.9789 8.14194 17.7596 8.05473 17.5317 8.05473C17.3039 8.05473 17.0846 8.14194 16.919 8.29848L14.6499 10.5693C9.22823 15.9892 8.07201 24.4309 11.694 31.0841L6.73219 32.0325C6.72266 32.0333 6.714 32.0299 6.70361 32.0325C6.47826 32.0755 6.2792 32.2062 6.15012 32.3959C6.02103 32.5855 5.97246 32.8186 6.01508 33.0441C6.0298 33.1237 6.05492 33.2 6.07137 33.2779C6.4173 34.9683 7.01121 36.5983 7.83384 38.1149C8.27915 38.9328 8.79069 39.7129 9.36334 40.4473C9.75419 40.9529 10.1729 41.4363 10.6174 41.8954C10.6702 41.9491 10.7265 41.9993 10.7802 42.0513C11.0912 42.3622 11.4151 42.6584 11.7502 42.9451C12.2178 43.3481 12.7067 43.7257 13.2148 44.0762C13.2364 44.0909 13.2564 44.1091 13.278 44.1238C13.4097 44.213 13.5465 44.2909 13.6799 44.3758C13.847 44.4824 14.0116 44.5906 14.1822 44.6911C14.4212 44.834 14.6637 44.9656 14.9071 45.0955C14.9885 45.1388 15.0682 45.1821 15.1496 45.2237C15.4597 45.3822 15.7732 45.5303 16.0893 45.6697H16.0902C16.4392 45.823 16.7917 45.9659 17.1494 46.095L14.0298 53.0955C13.8599 53.4748 13.7879 53.8906 13.8204 54.3049C13.853 54.7192 13.989 55.1187 14.216 55.4668C14.4416 55.8156 14.7512 56.1022 15.1163 56.3004C15.4814 56.4986 15.8904 56.6021 16.3058 56.6014H27.5674C37.969 56.6014 47.4188 50.467 51.6453 40.973L55.5859 32.1286L61.9377 28.4608C62.3123 28.2465 62.623 27.9364 62.8379 27.5622C63.0528 27.1881 63.1642 26.7634 63.1606 26.332C63.1616 25.9048 63.049 25.4851 62.8342 25.1159C62.6195 24.7466 62.3104 24.4412 61.9386 24.2308V24.2317ZM50.0638 40.2689C46.1145 49.1384 37.2848 54.8692 27.5674 54.8692H16.3058C15.9334 54.8692 15.7368 54.6276 15.6692 54.5228C15.6017 54.418 15.4614 54.14 15.6121 53.8013L18.8174 46.6068C20.1772 46.9481 21.5724 47.1308 22.9841 47.1308C24.0676 47.1308 25.1597 47.0286 26.2484 46.8216C29.4241 46.2221 32.3678 44.7434 34.7446 42.5536C34.9136 42.3979 35.0137 42.1814 35.0231 41.9518C35.0324 41.7222 34.9502 41.4983 34.7944 41.3294C34.6387 41.1604 34.4222 41.0603 34.1926 41.051C33.963 41.0416 33.7392 41.1239 33.5702 41.2796C31.4317 43.2501 28.7829 44.5806 25.9253 45.1198C23.36 45.6065 20.8224 45.4229 18.484 44.7058C18.3108 44.653 18.141 44.5932 17.9713 44.5343C17.6886 44.4376 17.4087 44.3327 17.1321 44.2199C17.0134 44.1714 16.893 44.1247 16.7752 44.0744C16.3654 43.8954 15.9635 43.6989 15.5705 43.4855L15.4649 43.4249C15.0512 43.196 14.6481 42.9487 14.2567 42.6835C12.6127 41.5638 11.1973 40.1408 10.0865 38.4908L10.0328 38.4129C9.77049 38.0173 9.52657 37.6098 9.30184 37.1917C9.2698 37.1311 9.23949 37.0679 9.20831 37.0064C9.02498 36.6536 8.85539 36.294 8.69992 35.9281C8.66008 35.8328 8.61591 35.7393 8.5778 35.6423C8.41566 35.2386 8.27061 34.8283 8.14303 34.4125C8.10233 34.2791 8.06682 34.144 8.02871 34.008C7.98887 33.8634 7.95856 33.7153 7.92218 33.5689L13.2304 32.5547C13.3698 32.5282 13.5005 32.4678 13.6111 32.3789C13.7217 32.29 13.8087 32.1753 13.8646 32.0448C13.9205 31.9144 13.9434 31.7722 13.9314 31.6308C13.9195 31.4894 13.8729 31.3531 13.7959 31.234C9.85094 25.1177 10.7257 16.9411 15.8745 11.794L17.5313 10.1354L28.7773 21.3806C28.8768 21.48 28.9989 21.5536 29.1332 21.5952C29.2675 21.6368 29.4099 21.6451 29.5481 21.6194C29.6864 21.5936 29.8162 21.5346 29.9265 21.4474C30.0368 21.3603 30.1243 21.2476 30.1813 21.119L32.0892 16.8215C33.1127 14.5323 34.7768 12.5881 36.8806 11.2234C38.9844 9.85877 41.4382 9.132 43.9458 9.13078C47.5539 9.13078 50.897 10.5624 53.3575 13.1624C55.8163 15.7597 57.1145 19.2648 56.9231 22.7793L56.9223 22.7836C56.8344 24.376 56.4536 25.9386 55.799 27.3929L50.0638 40.2698V40.2689ZM61.0691 26.9625L56.7863 29.4342L57.3813 28.0962C57.5493 27.7194 57.6966 27.3366 57.8317 26.9512C57.8706 26.8429 57.9044 26.7347 57.9399 26.6247C58.0361 26.3302 58.1227 26.034 58.1997 25.7352C58.2275 25.6287 58.2569 25.5222 58.282 25.4148C58.373 25.0285 58.4526 24.6405 58.5115 24.2499L61.0743 25.7309C61.3921 25.9128 61.4276 26.2159 61.4285 26.3371C61.4285 26.4619 61.3938 26.7719 61.0691 26.9625Z" fill="#19CEDA"/>
<path d="M46.7054 17.6755C45.8524 17.6764 45.0347 18.0157 44.4316 18.6189C43.8285 19.2222 43.4895 20.04 43.4888 20.893C43.4888 21.1227 43.58 21.343 43.7424 21.5054C43.9049 21.6678 44.1251 21.7591 44.3548 21.7591C44.5845 21.7591 44.8048 21.6678 44.9673 21.5054C45.1297 21.343 45.2209 21.1227 45.2209 20.893C45.2209 20.0737 45.8869 19.4085 46.7054 19.4085C47.5238 19.4085 48.1898 20.0737 48.1898 20.893C48.1898 21.1227 48.2811 21.343 48.4435 21.5054C48.6059 21.6678 48.8262 21.7591 49.0559 21.7591C49.2856 21.7591 49.5059 21.6678 49.6683 21.5054C49.8307 21.343 49.922 21.1227 49.922 20.893C49.9213 20.04 49.5822 19.2222 48.9792 18.6189C48.3761 18.0157 47.5584 17.6764 46.7054 17.6755V17.6755Z" fill="#19CEDA"/>
<path d="M93.5866 36.8238C93.5866 28.955 90.3004 25.7894 85.2053 25.7894C80.7734 25.7894 78.3917 28.3218 77.6681 31.186C77.6681 30.7639 77.7585 30.1609 77.7585 29.2263V15.5991H76.3415V43.6676C76.3415 45.2051 76.2812 47.0442 76.1606 47.9788H77.6078C77.6681 47.1045 77.7284 44.1801 77.7284 42.8234C78.8137 46.9236 81.8588 48.4009 84.9942 48.4009C90.421 48.4009 93.5866 45.2654 93.5866 36.8238ZM92.0792 36.8841C92.0792 44.6323 89.2452 47.1347 84.8435 47.1347C80.2609 47.1347 77.7585 43.8786 77.7585 36.7635C77.7585 30.2815 79.8689 27.0857 85.0244 27.0857C89.2754 27.0857 92.0792 29.7991 92.0792 36.8841ZM100.34 47.9788H101.787V15.5991H100.34V47.9788ZM109.897 26.2114H108.45V41.0446C108.45 46.3207 110.681 48.4009 115.233 48.4009C119.876 48.4009 122.047 45.6574 123.102 42.9138L123.193 47.9788H124.58L124.489 43.4565V26.2114H123.042V38.9342C123.042 44.0896 119.876 47.2251 115.535 47.2251C111.857 47.2251 109.897 45.5669 109.897 40.8336V26.2114ZM139.352 48.4009C144.327 48.4009 146.015 46.3809 147.493 43.4264L146.136 43.0043C144.779 45.6875 143.392 47.1347 139.383 47.1347C134.107 47.1347 131.876 43.0344 131.876 37.5474V37.2157H147.734C147.734 37.0951 147.794 36.1304 147.794 35.9796C147.794 30.4323 146.045 25.7894 139.292 25.7894C134.076 25.7894 130.308 29.0153 130.308 37.0348C130.308 43.969 133.142 48.4009 139.352 48.4009ZM139.292 26.9953C144.206 26.9953 146.226 30.2514 146.226 35.5274V35.9495H131.876C131.996 29.3771 135.343 26.9953 139.292 26.9953ZM180.204 36.8238C180.204 28.955 176.918 25.7894 171.792 25.7894C167.361 25.7894 165.009 28.3218 164.285 31.186C164.285 30.7639 164.376 30.1609 164.376 29.2263V15.5991H162.929V43.6676C162.929 45.2051 162.899 47.0442 162.778 47.9788H164.195C164.285 47.1045 164.346 44.1801 164.346 42.8234C165.431 46.9236 168.476 48.4009 171.581 48.4009C177.038 48.4009 180.204 45.2654 180.204 36.8238ZM178.697 36.8841C178.697 44.6323 175.863 47.1347 171.461 47.1347C166.878 47.1347 164.376 43.8786 164.376 36.7635C164.376 30.2815 166.486 27.0857 171.642 27.0857C175.893 27.0857 178.697 29.7991 178.697 36.8841ZM186.957 47.9788H188.435V26.2114H186.957V47.9788ZM186.746 20.5133H188.646V18.1316H186.746V20.5133ZM204.986 27.5078V26.0305H204.293C201.127 26.0305 198.655 28.3821 197.931 31.3367C197.962 29.2866 197.901 27.6887 197.841 26.2114H196.454C196.484 27.749 196.545 29.9197 196.545 31.4875V47.9788H198.022V34.5928C198.022 31.4272 200.162 27.5078 204.172 27.5078H204.986ZM216.895 48.4009C220.061 48.4009 223.166 47.1045 224.432 42.7932C224.432 44.1499 224.492 47.1045 224.553 47.9788H226C225.909 47.0442 225.819 45.2051 225.819 43.6676V15.5991H224.402V28.5932C224.402 29.2866 224.402 30.1308 224.432 30.794C223.678 27.9601 221.236 25.7894 217.046 25.7894C212.041 25.7894 208.574 28.9851 208.574 36.8841C208.574 45.2654 211.529 48.4009 216.895 48.4009ZM217.106 47.1045C212.704 47.1045 210.081 44.4816 210.081 36.8238C210.081 29.8293 212.885 27.0556 217.046 27.0556C221.96 27.0556 224.402 30.1609 224.402 36.6128C224.402 43.8485 221.689 47.1045 217.106 47.1045Z" fill="#19CEDA"/>
</svg>
